<!-- Generated by LivingSurveyAgent; do not edit manually. -->
<svg xmlns="http://www.w3.org/2000/svg" width="960" height="624" viewBox="0 0 960 624" role="img" aria-labelledby="title desc">
  <title id="title">Primary method distribution</title>
  <desc id="desc">Horizontal bars show unique papers assigned to each active primary leaf branch.</desc>
  <style>
        .bg { fill: #ffffff; }
        .title { fill: #111827; font: 700 24px system-ui, -apple-system, Segoe UI, sans-serif; }
        .subtitle { fill: #4b5563; font: 14px system-ui, -apple-system, Segoe UI, sans-serif; }
        .label { fill: #374151; font: 13px system-ui, -apple-system, Segoe UI, sans-serif; }
        .small { fill: #6b7280; font: 12px system-ui, -apple-system, Segoe UI, sans-serif; }
        .value { fill: #111827; font: 600 12px system-ui, -apple-system, Segoe UI, sans-serif; }
        .grid { stroke: #e5e7eb; stroke-width: 1; }
        .axis { stroke: #9ca3af; stroke-width: 1; }
        @media (prefers-color-scheme: dark) {
          .bg { fill: #0d1117; }
          .title, .value { fill: #f0f6fc; }
          .subtitle, .label { fill: #c9d1d9; }
          .small { fill: #8b949e; }
          .grid { stroke: #30363d; }
          .axis { stroke: #6e7681; }
        }
      </style>
  <rect class="bg" width="960" height="624" rx="12"/>
  <text class="title" x="32" y="38">Primary method distribution</text>
  <text class="subtitle" x="32" y="62">One primary branch per paper; multi-label taxonomy remains available separately</text>
  <text class="label" x="271" y="112" text-anchor="end">Point-based learning</text>
  <rect x="285" y="96" width="613.0" height="22" rx="4" fill="#2563eb"/>
  <text class="value" x="907.0" y="112">16</text>
  <text class="label" x="271" y="146" text-anchor="end">Projection-based learning</text>
  <rect x="285" y="130" width="383.1" height="22" rx="4" fill="#2563eb"/>
  <text class="value" x="677.1" y="146">10</text>
  <text class="label" x="271" y="180" text-anchor="end">Projection / context</text>
  <rect x="285" y="164" width="344.8" height="22" rx="4" fill="#2563eb"/>
  <text class="value" x="638.8" y="180">9</text>
  <text class="label" x="271" y="214" text-anchor="end">Voxel / sparse learning</text>
  <rect x="285" y="198" width="344.8" height="22" rx="4" fill="#2563eb"/>
  <text class="value" x="638.8" y="214">9</text>
  <text class="label" x="271" y="248" text-anchor="end">Geometry / topology</text>
  <rect x="285" y="232" width="268.2" height="22" rx="4" fill="#2563eb"/>
  <text class="value" x="562.2" y="248">7</text>
  <text class="label" x="271" y="282" text-anchor="end">Multimodal learning</text>
  <rect x="285" y="266" width="153.2" height="22" rx="4" fill="#2563eb"/>
  <text class="value" x="447.2" y="282">4</text>
  <text class="label" x="271" y="316" text-anchor="end">Segment / object matching</text>
  <rect x="285" y="300" width="153.2" height="22" rx="4" fill="#16a34a"/>
  <text class="value" x="447.2" y="316">4</text>
  <text class="label" x="271" y="350" text-anchor="end">Frequency / transform</text>
  <rect x="285" y="334" width="114.9" height="22" rx="4" fill="#2563eb"/>
  <text class="value" x="408.9" y="350">3</text>
  <text class="label" x="271" y="384" text-anchor="end">Map / submap-assisted</text>
  <rect x="285" y="368" width="114.9" height="22" rx="4" fill="#d97706"/>
  <text class="value" x="408.9" y="384">3</text>
  <text class="label" x="271" y="418" text-anchor="end">Semantic graphs</text>
  <rect x="285" y="402" width="114.9" height="22" rx="4" fill="#16a34a"/>
  <text class="value" x="408.9" y="418">3</text>
  <text class="label" x="271" y="452" text-anchor="end">Lifelong / uncertainty</text>
  <rect x="285" y="436" width="76.6" height="22" rx="4" fill="#7c3aed"/>
  <text class="value" x="370.6" y="452">2</text>
  <text class="label" x="271" y="486" text-anchor="end">Sequence-based recognition</text>
  <rect x="285" y="470" width="76.6" height="22" rx="4" fill="#d97706"/>
  <text class="value" x="370.6" y="486">2</text>
  <text class="label" x="271" y="520" text-anchor="end">Cross-source / cross-view</text>
  <rect x="285" y="504" width="38.3" height="22" rx="4" fill="#7c3aed"/>
  <text class="value" x="332.3" y="520">1</text>
  <text class="label" x="271" y="554" text-anchor="end">Semantic descriptors</text>
  <rect x="285" y="538" width="38.3" height="22" rx="4" fill="#16a34a"/>
  <text class="value" x="332.3" y="554">1</text>
  <text class="small" x="932" y="606" text-anchor="end">Snapshot lpr-survey-911453a86068e183</text>
</svg>
