<!-- Generated by LivingSurveyAgent; do not edit manually. -->
<svg xmlns="http://www.w3.org/2000/svg" width="960" height="440" viewBox="0 0 960 440" role="img" aria-labelledby="title desc">
  <title id="title">Reviewed LPR papers by year and primary branch</title>
  <desc id="desc">Stacked bars count each published paper once using its primary research branch.</desc>
  <style>
        .bg { fill: #ffffff; }
        .title { fill: #111827; font: 700 24px system-ui, -apple-system, Segoe UI, sans-serif; }
        .subtitle { fill: #4b5563; font: 14px system-ui, -apple-system, Segoe UI, sans-serif; }
        .label { fill: #374151; font: 13px system-ui, -apple-system, Segoe UI, sans-serif; }
        .small { fill: #6b7280; font: 12px system-ui, -apple-system, Segoe UI, sans-serif; }
        .value { fill: #111827; font: 600 12px system-ui, -apple-system, Segoe UI, sans-serif; }
        .grid { stroke: #e5e7eb; stroke-width: 1; }
        .axis { stroke: #9ca3af; stroke-width: 1; }
        @media (prefers-color-scheme: dark) {
          .bg { fill: #0d1117; }
          .title, .value { fill: #f0f6fc; }
          .subtitle, .label { fill: #c9d1d9; }
          .small { fill: #8b949e; }
          .grid { stroke: #30363d; }
          .axis { stroke: #6e7681; }
        }
      </style>
  <rect class="bg" width="960" height="440" rx="12"/>
  <text class="title" x="32" y="38">Reviewed papers by year</text>
  <text class="subtitle" x="32" y="62">Unique papers, stacked by exclusive primary research branch</text>
  <rect x="32" y="78" width="12" height="12" rx="2" fill="#2563eb"/>
  <text class="small" x="50" y="89">Global retrieval</text>
  <rect x="186" y="78" width="12" height="12" rx="2" fill="#16a34a"/>
  <text class="small" x="204" y="89">Local, segment and semantic structure</text>
  <rect x="487" y="78" width="12" height="12" rx="2" fill="#d97706"/>
  <text class="small" x="505" y="89">Temporal and map-assisted</text>
  <rect x="704" y="78" width="12" height="12" rx="2" fill="#7c3aed"/>
  <text class="small" x="722" y="89">Emerging and cross-domain</text>
  <line class="grid" x1="72" y1="372.0" x2="930" y2="372.0"/>
  <text class="small" x="60" y="376.0" text-anchor="end">0</text>
  <line class="grid" x1="72" y1="320.0" x2="930" y2="320.0"/>
  <text class="small" x="60" y="324.0" text-anchor="end">2</text>
  <line class="grid" x1="72" y1="268.0" x2="930" y2="268.0"/>
  <text class="small" x="60" y="272.0" text-anchor="end">4</text>
  <line class="grid" x1="72" y1="216.0" x2="930" y2="216.0"/>
  <text class="small" x="60" y="220.0" text-anchor="end">6</text>
  <line class="grid" x1="72" y1="164.0" x2="930" y2="164.0"/>
  <text class="small" x="60" y="168.0" text-anchor="end">8</text>
  <line class="grid" x1="72" y1="112.0" x2="930" y2="112.0"/>
  <text class="small" x="60" y="116.0" text-anchor="end">10</text>
  <line class="axis" x1="72" y1="372" x2="930" y2="372"/>
  <rect x="93.7" y="346.0" width="52.0" height="26.0" fill="#2563eb"><title>2016: Global retrieval — 1</title></rect>
  <text class="value" x="119.7" y="339.0" text-anchor="middle">1</text>
  <text class="label" x="119.7" y="396" text-anchor="middle">2016</text>
  <rect x="189.0" y="346.0" width="52.0" height="26.0" fill="#16a34a"><title>2017: Local, segment and semantic structure — 1</title></rect>
  <text class="value" x="215.0" y="339.0" text-anchor="middle">1</text>
  <text class="label" x="215.0" y="396" text-anchor="middle">2017</text>
  <rect x="284.3" y="320.0" width="52.0" height="52.0" fill="#2563eb"><title>2018: Global retrieval — 2</title></rect>
  <text class="value" x="310.3" y="313.0" text-anchor="middle">2</text>
  <text class="label" x="310.3" y="396" text-anchor="middle">2018</text>
  <rect x="379.7" y="346.0" width="52.0" height="26.0" fill="#2563eb"><title>2019: Global retrieval — 1</title></rect>
  <rect x="379.7" y="320.0" width="52.0" height="26.0" fill="#d97706"><title>2019: Temporal and map-assisted — 1</title></rect>
  <text class="value" x="405.7" y="313.0" text-anchor="middle">2</text>
  <text class="label" x="405.7" y="396" text-anchor="middle">2019</text>
  <rect x="475.0" y="346.0" width="52.0" height="26.0" fill="#2563eb"><title>2020: Global retrieval — 1</title></rect>
  <rect x="475.0" y="268.0" width="52.0" height="78.0" fill="#16a34a"><title>2020: Local, segment and semantic structure — 3</title></rect>
  <text class="value" x="501.0" y="261.0" text-anchor="middle">4</text>
  <text class="label" x="501.0" y="396" text-anchor="middle">2020</text>
  <rect x="570.3" y="242.0" width="52.0" height="130.0" fill="#2563eb"><title>2021: Global retrieval — 5</title></rect>
  <rect x="570.3" y="216.0" width="52.0" height="26.0" fill="#16a34a"><title>2021: Local, segment and semantic structure — 1</title></rect>
  <rect x="570.3" y="190.0" width="52.0" height="26.0" fill="#d97706"><title>2021: Temporal and map-assisted — 1</title></rect>
  <text class="value" x="596.3" y="183.0" text-anchor="middle">7</text>
  <text class="label" x="596.3" y="396" text-anchor="middle">2021</text>
  <rect x="665.7" y="242.0" width="52.0" height="130.0" fill="#2563eb"><title>2022: Global retrieval — 5</title></rect>
  <rect x="665.7" y="216.0" width="52.0" height="26.0" fill="#16a34a"><title>2022: Local, segment and semantic structure — 1</title></rect>
  <rect x="665.7" y="190.0" width="52.0" height="26.0" fill="#d97706"><title>2022: Temporal and map-assisted — 1</title></rect>
  <text class="value" x="691.7" y="183.0" text-anchor="middle">7</text>
  <text class="label" x="691.7" y="396" text-anchor="middle">2022</text>
  <rect x="761.0" y="320.0" width="52.0" height="52.0" fill="#2563eb"><title>2023: Global retrieval — 2</title></rect>
  <rect x="761.0" y="294.0" width="52.0" height="26.0" fill="#d97706"><title>2023: Temporal and map-assisted — 1</title></rect>
  <text class="value" x="787.0" y="287.0" text-anchor="middle">3</text>
  <text class="label" x="787.0" y="396" text-anchor="middle">2023</text>
  <rect x="856.3" y="346.0" width="52.0" height="26.0" fill="#16a34a"><title>2024: Local, segment and semantic structure — 1</title></rect>
  <rect x="856.3" y="320.0" width="52.0" height="26.0" fill="#7c3aed"><title>2024: Emerging and cross-domain — 1</title></rect>
  <text class="value" x="882.3" y="313.0" text-anchor="middle">2</text>
  <text class="label" x="882.3" y="396" text-anchor="middle">2024</text>
  <text class="small" x="932" y="422" text-anchor="end">Snapshot lpr-survey-8c1a9ca39c018560</text>
</svg>
