<!-- Generated by LivingSurveyAgent; do not edit manually. -->
<svg xmlns="http://www.w3.org/2000/svg" width="960" height="440" viewBox="0 0 960 440" role="img" aria-labelledby="title desc">
  <title id="title">Reviewed LPR papers by year and core method paradigm</title>
  <desc id="desc">Stacked bars count each published paper once as handcrafted, learning-based, or hybrid.</desc>
  <style>
        .bg { fill: #ffffff; }
        .title { fill: #111827; font: 700 24px system-ui, -apple-system, Segoe UI, sans-serif; }
        .subtitle { fill: #4b5563; font: 14px system-ui, -apple-system, Segoe UI, sans-serif; }
        .label { fill: #374151; font: 13px system-ui, -apple-system, Segoe UI, sans-serif; }
        .small { fill: #6b7280; font: 12px system-ui, -apple-system, Segoe UI, sans-serif; }
        .value { fill: #111827; font: 600 12px system-ui, -apple-system, Segoe UI, sans-serif; }
        .grid { stroke: #e5e7eb; stroke-width: 1; }
        .axis { stroke: #9ca3af; stroke-width: 1; }
        @media (prefers-color-scheme: dark) {
          .bg { fill: #0d1117; }
          .title, .value { fill: #f0f6fc; }
          .subtitle, .label { fill: #c9d1d9; }
          .small { fill: #8b949e; }
          .grid { stroke: #30363d; }
          .axis { stroke: #6e7681; }
        }
      </style>
  <rect class="bg" width="960" height="440" rx="12"/>
  <text class="title" x="32" y="38">Reviewed papers by year</text>
  <text class="subtitle" x="32" y="62">Unique papers, stacked by exclusive core method paradigm</text>
  <rect x="32" y="78" width="12" height="12" rx="2" fill="#d97706"/>
  <text class="small" x="50" y="89">Handcrafted</text>
  <rect x="151" y="78" width="12" height="12" rx="2" fill="#2563eb"/>
  <text class="small" x="169" y="89">Learning-based</text>
  <rect x="291" y="78" width="12" height="12" rx="2" fill="#7c3aed"/>
  <text class="small" x="309" y="89">Hybrid</text>
  <line class="grid" x1="72" y1="372.0" x2="930" y2="372.0"/>
  <text class="small" x="60" y="376.0" text-anchor="end">0</text>
  <line class="grid" x1="72" y1="320.0" x2="930" y2="320.0"/>
  <text class="small" x="60" y="324.0" text-anchor="end">4</text>
  <line class="grid" x1="72" y1="268.0" x2="930" y2="268.0"/>
  <text class="small" x="60" y="272.0" text-anchor="end">8</text>
  <line class="grid" x1="72" y1="216.0" x2="930" y2="216.0"/>
  <text class="small" x="60" y="220.0" text-anchor="end">12</text>
  <line class="grid" x1="72" y1="164.0" x2="930" y2="164.0"/>
  <text class="small" x="60" y="168.0" text-anchor="end">16</text>
  <line class="grid" x1="72" y1="112.0" x2="930" y2="112.0"/>
  <text class="small" x="60" y="116.0" text-anchor="end">20</text>
  <line class="axis" x1="72" y1="372" x2="930" y2="372"/>
  <rect x="81.1" y="359.0" width="32.3" height="13.0" fill="#2563eb"><title>2010: Learning-based — 1</title></rect>
  <text class="value" x="97.2" y="352.0" text-anchor="middle">1</text>
  <text class="label" x="97.2" y="396" text-anchor="middle">2010</text>
  <rect x="131.6" y="359.0" width="32.3" height="13.0" fill="#d97706"><title>2011: Handcrafted — 1</title></rect>
  <text class="value" x="147.7" y="352.0" text-anchor="middle">1</text>
  <text class="label" x="147.7" y="396" text-anchor="middle">2011</text>
  <text class="label" x="198.2" y="396" text-anchor="middle">2012</text>
  <text class="label" x="248.6" y="396" text-anchor="middle">2013</text>
  <text class="label" x="299.1" y="396" text-anchor="middle">2014</text>
  <rect x="333.4" y="359.0" width="32.3" height="13.0" fill="#d97706"><title>2015: Handcrafted — 1</title></rect>
  <text class="value" x="349.6" y="352.0" text-anchor="middle">1</text>
  <text class="label" x="349.6" y="396" text-anchor="middle">2015</text>
  <rect x="383.9" y="359.0" width="32.3" height="13.0" fill="#d97706"><title>2016: Handcrafted — 1</title></rect>
  <text class="value" x="400.1" y="352.0" text-anchor="middle">1</text>
  <text class="label" x="400.1" y="396" text-anchor="middle">2016</text>
  <rect x="434.4" y="359.0" width="32.3" height="13.0" fill="#d97706"><title>2017: Handcrafted — 1</title></rect>
  <text class="value" x="450.5" y="352.0" text-anchor="middle">1</text>
  <text class="label" x="450.5" y="396" text-anchor="middle">2017</text>
  <rect x="484.8" y="359.0" width="32.3" height="13.0" fill="#d97706"><title>2018: Handcrafted — 1</title></rect>
  <rect x="484.8" y="346.0" width="32.3" height="13.0" fill="#2563eb"><title>2018: Learning-based — 1</title></rect>
  <text class="value" x="501.0" y="339.0" text-anchor="middle">2</text>
  <text class="label" x="501.0" y="396" text-anchor="middle">2018</text>
  <rect x="535.3" y="359.0" width="32.3" height="13.0" fill="#d97706"><title>2019: Handcrafted — 1</title></rect>
  <rect x="535.3" y="294.0" width="32.3" height="65.0" fill="#2563eb"><title>2019: Learning-based — 5</title></rect>
  <text class="value" x="551.5" y="287.0" text-anchor="middle">6</text>
  <text class="label" x="551.5" y="396" text-anchor="middle">2019</text>
  <rect x="585.8" y="320.0" width="32.3" height="52.0" fill="#d97706"><title>2020: Handcrafted — 4</title></rect>
  <rect x="585.8" y="255.0" width="32.3" height="65.0" fill="#2563eb"><title>2020: Learning-based — 5</title></rect>
  <text class="value" x="601.9" y="248.0" text-anchor="middle">9</text>
  <text class="label" x="601.9" y="396" text-anchor="middle">2020</text>
  <rect x="636.3" y="346.0" width="32.3" height="26.0" fill="#d97706"><title>2021: Handcrafted — 2</title></rect>
  <rect x="636.3" y="177.0" width="32.3" height="169.0" fill="#2563eb"><title>2021: Learning-based — 13</title></rect>
  <text class="value" x="652.4" y="170.0" text-anchor="middle">15</text>
  <text class="label" x="652.4" y="396" text-anchor="middle">2021</text>
  <rect x="686.7" y="346.0" width="32.3" height="26.0" fill="#d97706"><title>2022: Handcrafted — 2</title></rect>
  <rect x="686.7" y="151.0" width="32.3" height="195.0" fill="#2563eb"><title>2022: Learning-based — 15</title></rect>
  <text class="value" x="702.9" y="144.0" text-anchor="middle">17</text>
  <text class="label" x="702.9" y="396" text-anchor="middle">2022</text>
  <rect x="737.2" y="307.0" width="32.3" height="65.0" fill="#d97706"><title>2023: Handcrafted — 5</title></rect>
  <rect x="737.2" y="255.0" width="32.3" height="52.0" fill="#2563eb"><title>2023: Learning-based — 4</title></rect>
  <text class="value" x="753.4" y="248.0" text-anchor="middle">9</text>
  <text class="label" x="753.4" y="396" text-anchor="middle">2023</text>
  <rect x="787.7" y="320.0" width="32.3" height="52.0" fill="#d97706"><title>2024: Handcrafted — 4</title></rect>
  <rect x="787.7" y="177.0" width="32.3" height="143.0" fill="#2563eb"><title>2024: Learning-based — 11</title></rect>
  <text class="value" x="803.8" y="170.0" text-anchor="middle">15</text>
  <text class="label" x="803.8" y="396" text-anchor="middle">2024</text>
  <rect x="838.1" y="359.0" width="32.3" height="13.0" fill="#d97706"><title>2025: Handcrafted — 1</title></rect>
  <rect x="838.1" y="281.0" width="32.3" height="78.0" fill="#2563eb"><title>2025: Learning-based — 6</title></rect>
  <text class="value" x="854.3" y="274.0" text-anchor="middle">7</text>
  <text class="label" x="854.3" y="396" text-anchor="middle">2025</text>
  <rect x="888.6" y="359.0" width="32.3" height="13.0" fill="#d97706"><title>2026: Handcrafted — 1</title></rect>
  <rect x="888.6" y="294.0" width="32.3" height="65.0" fill="#2563eb"><title>2026: Learning-based — 5</title></rect>
  <text class="value" x="904.8" y="287.0" text-anchor="middle">6</text>
  <text class="label" x="904.8" y="396" text-anchor="middle">2026</text>
  <text class="small" x="932" y="422" text-anchor="end">Snapshot lpr-survey-4c527a0f69d72ee9</text>
</svg>
